{
  "asset": { "version": "2.0" },
  "scene": 0,
  "scenes": [{ "nodes": [0] }],
  "nodes": [{
    "mesh": 0,
    "translation": [0, 0.5, 0]
  }],
  "meshes": [{
    "primitives": [{
      "attributes": {
        "POSITION": 0,
        "NORMAL": 1,
        "TEXCOORD_0": 2
      },
      "indices": 3,
      "material": 0,
      "mode": 4
    }]
  }],
  "materials": [{
    "pbrMetallicRoughness": {
      "baseColorFactor": [1, 1, 1, 1],
      "baseColorTexture": { "index": 0 },
      "metallicFactor": 0,
      "roughnessFactor": 1
    }
  }],
  "textures": [{ "source": 0 }],
  "images": [{ "uri": "../textures/d%65mo.png" }],
  "buffers": [{
    "uri": "data:application/octet-stream;base64,",
    "byteLength": 140
  }],
  "bufferViews": [
    { "buffer": 0, "byteOffset": 0, "byteLength": 48 },
    { "buffer": 0, "byteOffset": 48, "byteLength": 48 },
    { "buffer": 0, "byteOffset": 96, "byteLength": 32 },
    { "buffer": 0, "byteOffset": 128, "byteLength": 12 }
  ],
  "accessors": [
    {
      "bufferView": 0,
      "componentType": 5126,
      "count": 4,
      "type": "VEC3",
      "min": [-1, -1, 0],
      "max": [1, 1, 0]
    },
    {
      "bufferView": 1,
      "componentType": 5126,
      "count": 4,
      "type": "VEC3"
    },
    {
      "bufferView": 2,
      "componentType": 5126,
      "count": 4,
      "type": "VEC2"
    },
    {
      "bufferView": 3,
      "componentType": 5123,
      "count": 6,
      "type": "SCALAR"
    }
  ]
}